<?xml version="1.0" encoding="utf-8"?>
<!-- Generator: Adobe Illustrator 25.1.0, SVG Export Plug-In . SVG Version: 6.00 Build 0)  -->
<svg version="1.1" id="b97da3e5-0e47-4f78-a23b-a0e68331254e"
	 xmlns="http://www.w3.org/2000/svg" xmlns:xlink="http://www.w3.org/1999/xlink" x="0px" y="0px" viewBox="0 0 891.3 851.4"
	 style="enable-background:new 0 0 891.3 851.4;" xml:space="preserve">
<style type="text/css">
	.st0{fill:#1E1E1A;}
	.st1{fill:#161613;}
	.st2{fill:#383838;}
	.st3{fill:#232322;}
	.st4{fill:#272822;}
	.st5{fill:#474747;}
</style>
<ellipse class="st0" cx="418.6" cy="727.2" rx="352" ry="18"/>
<path class="st1" d="M620.3,63.4v63l-81.2,81.2l-7.6,7.6l-5,5L261.4,485.3V63.4c0-35,28.4-63.4,63.4-63.4h232.1
	C591.9,0,620.3,28.4,620.3,63.4z"/>
<path class="st1" d="M624.3,174.1v76.8h-4v413.5c0,35-28.4,63.4-63.4,63.4H324.8c-35,0-63.4-28.4-63.4-63.4V537l17.5-17.5
	l189.4-189.4l1.7-1.7l105.9-105.9l1.6-1.6l29.3-29.3L624.3,174.1z"/>
<path class="st2" d="M606.8,191.6v472.3c0,26.2-21.2,47.4-47.3,47.4H326.2c-26.2,0-47.3-21.2-47.3-47.4V519.5l189.4-189.4l1.7-1.7
	l105.9-105.9l1.6-1.6L606.8,191.6z"/>
<path class="st2" d="M606.8,63.8v76l-67.7,67.7l-7.6,7.6l-5,5L278.9,467.8V63.8c0-26.2,21.2-47.4,47.3-47.4h28.3
	c-4.7,11.5,0.9,24.7,12.4,29.3c2.7,1.1,5.6,1.7,8.5,1.7h133c12.4,0,22.5-10.1,22.5-22.5c0-2.9-0.6-5.8-1.7-8.5h30.3
	C585.6,16.5,606.8,37.7,606.8,63.8z"/>
<path class="st3" d="M531.7,322.6c-1.6,0.8-3.1,1.6-4.7,2.3c-1.5,0.7-2.9,1.3-4.5,1.9c-0.5,0.2-1.1,0.4-1.7,0.6
	c-4.4,1.6-9,2.9-13.6,3.8c-2.3,0.5-4.6,0.8-7,1.1c-1.9,0.2-3.9,0.4-5.9,0.5c-1.4,0.1-2.8,0.1-4.2,0.1c-5.6,0-11.2-0.5-16.8-1.6
	c-1.4-0.3-2.9-0.6-4.3-0.9c-0.3-0.1-0.5-0.1-0.8-0.2l1.7-1.7l28-28c8.2,1.6,16.2,5.2,23.2,10.8c1.5,1.2,2.9,2.5,4.3,3.9
	c1.8,1.8,3.5,3.8,5.1,5.9C530.9,321.5,531.3,322,531.7,322.6z"/>
<path class="st1" d="M531.5,215.2l-5,5l-53.9,53.9c-5.8-2.9-10.8-7-14.8-12c-6-7.5-9.5-17-9.5-27.3c0-24.2,19.7-43.9,43.9-43.9
	c9.7,0,18.6,3.1,25.9,8.4C523.7,203.4,528.3,208.9,531.5,215.2z"/>
<path class="st4" d="M515.1,231.6L469.7,277c-4.1-2.8-7.6-6.6-10.2-11.3c-0.6-1.2-1.2-2.4-1.7-3.6c-3.7-9.2-2.9-19.2,1.6-27.5
	c2.9-5.4,7.3-10,13.1-13.2C487.3,213.3,505.8,217.9,515.1,231.6z"/>
<path class="st1" d="M520.1,226.6l-8.3,8.3c-4.7,1.6-9.7,2.5-14.7,2.4c2.6,1.8,5.4,3.1,8.4,3.9l-1.2,1.2
	c-10.9,1.9-22.1,1.7-32.9-0.5c-2.7-0.4-5.3-1.3-7.7-2.6c-1.9-1.1-3.4-2.8-4.2-4.8c-0.2-0.5-0.4-1-0.5-1.5c-0.8-4.6,2.8-8.8,6.5-11.6
	c11.5-8.6,26.3-11.5,40.2-8c4.5,1.2,9,3.1,11.9,6.7C519,222,519.9,224.3,520.1,226.6z"/>
<path class="st0" d="M577.5,220.9l-1.6,1.6c4.8,20.5,2.3,42.8-8.6,62.7c-0.1,0.1-0.2,0.3-0.2,0.4c-8.4,15.1-21.1,27.4-36.5,35.3
	c-1.5,0.8-3.1,1.5-4.7,2.2c-1.3,0.6-2.7,1.1-4,1.7c-0.6,0.2-1.2,0.4-1.7,0.6c-3.8,1.4-7.8,2.5-11.7,3.4c-3,0.6-6,1.1-9,1.4
	c-1.8,0.2-3.7,0.3-5.6,0.4c-1.2,0-2.4,0.1-3.6,0.1c-5.4,0-10.9-0.5-16.2-1.5c-1.3-0.2-2.6-0.5-4-0.8l-1.7,1.7
	c0.3,0.1,0.5,0.1,0.8,0.2c1.4,0.3,2.8,0.7,4.3,0.9c5.5,1,11.1,1.6,16.8,1.6c1.4,0,2.8,0,4.2-0.1c2-0.1,3.9-0.2,5.9-0.5
	c2.3-0.3,4.7-0.6,7-1.1c4.6-0.9,9.2-2.1,13.6-3.8c0.6-0.2,1.1-0.4,1.7-0.6c1.5-0.6,3-1.2,4.5-1.9c1.6-0.7,3.2-1.5,4.7-2.3
	c15.6-8.1,28.4-20.6,37-36c0-0.1,0.1-0.2,0.1-0.2c4.6-8.2,7.9-17.2,9.7-26.4C581.1,246.6,580.6,233.3,577.5,220.9z M507.3,154.4
	c-5.6-1.1-11.4-1.6-17.1-1.6c-49.7,0-90,40.3-90,90c0,27.5,12.5,53.2,33.6,70.2l1.4-1.4c-34.4-27.3-43.7-76.6-20.1-114.9
	c25.5-41.5,79.7-54.4,121.1-29c8.9,5.5,16.6,12.3,22.8,20.1l1.3-1.3C547.4,170.4,529,158.7,507.3,154.4z"/>
<path class="st1" d="M469.9,191.5c-0.5-5-6.6-8-11.3-6.5s-7.9,6.3-8.8,11.2c-0.9,4.2-0.1,8.5,2.2,12.1c2.4,3.5,6.8,5.6,11,4.7
	c4.7-1,8-5.6,8.9-10.3s0-9.6-0.9-14.3L469.9,191.5z"/>
<path class="st1" d="M539.1,207.6l-7.6,7.6l-5,5c-3-0.5-5.8-2.3-7.6-4.8c-2.3-3.6-3.1-8-2.2-12.1c0.3-1.3,0.7-2.7,1.3-3.9
	c1.5-3.3,4.1-6.2,7.6-7.2c4.8-1.5,10.8,1.6,11.3,6.5l1-3.1C538.6,199.5,539.4,203.6,539.1,207.6z"/>
<path class="st2" d="M334.6,278.7c-1.3,0-2.5-0.5-3.3-1.5l-49.6-54.1c-1.1-1.2-2.7-1.9-4.4-1.9H15c-8.3,0-15-6.7-15-15v-94.6
	c0-8.3,6.7-15,15-15h339.7c8.3,0,15,6.7,15,15v94.6c0,8.3-6.7,15-15,15h-9.6c-3.3,0-6,2.7-6,6v47c0,1.9-1.1,3.5-2.9,4.2
	C335.7,278.6,335.1,278.7,334.6,278.7z"/>
<path class="st0" d="M334.6,278.7c-1.3,0-2.5-0.5-3.3-1.5l-49.6-54.1c-1.1-1.2-2.7-1.9-4.4-1.9H15c-8.3,0-15-6.7-15-15v-94.6
	c0-8.3,6.7-15,15-15h339.7c8.3,0,15,6.7,15,15v94.6c0,8.3-6.7,15-15,15h-9.6c-3.3,0-6,2.7-6,6v47c0,1.9-1.1,3.5-2.9,4.2
	C335.7,278.6,335.1,278.7,334.6,278.7z M15,98.6c-7.2,0-13,5.8-13,13v94.6c0,7.2,5.8,13,13,13h262.2c2.2,0,4.4,0.9,5.9,2.6
	l49.6,54.1c0.9,1,2.5,1.1,3.5,0.2c0.5-0.5,0.8-1.1,0.8-1.8v-47c0-4.4,3.6-8,8-8h9.6c7.2,0,13-5.8,13-13v-94.6c0-7.2-5.8-13-13-13H15
	z"/>
<circle class="st3" cx="36.8" cy="125.2" r="13.1"/>
<path class="st4" d="M339.4,197.9H30.3c-3.9,0-7-3.1-7-7c0-3.9,3.1-7,7-7c0,0,0,0,0,0h309.1c3.9,0,7,3.1,7,7
	C346.4,194.7,343.3,197.9,339.4,197.9z"/>
<path class="st4" d="M238.7,168.1H30.3c-3.9,0-7-3.1-7-7c0-3.9,3.1-7,7-7c0,0,0,0,0,0h208.4c3.9,0,7,3.1,7,7
	C245.7,165,242.6,168.1,238.7,168.1z"/>
<path class="st2" d="M555.1,599.4c-1.7-0.7-2.9-2.3-2.9-4.2v-47c0-3.3-2.7-6-6-6h-9.6c-8.3,0-15-6.7-15-15v-94.6c0-8.3,6.7-15,15-15
	h339.7c8.3,0,15,6.7,15,15v94.6c0,8.3-6.7,15-15,15H614.1c-1.7,0-3.3,0.7-4.4,1.9L560,598.3c-0.8,0.9-2,1.5-3.3,1.5
	C556.1,599.7,555.6,599.6,555.1,599.4z"/>
<path class="st0" d="M555.1,599.4c-1.7-0.7-2.9-2.3-2.9-4.2v-47c0-3.3-2.7-6-6-6h-9.6c-8.3,0-15-6.7-15-15v-94.6c0-8.3,6.7-15,15-15
	h339.7c8.3,0,15,6.7,15,15v94.6c0,8.3-6.7,15-15,15H614.1c-1.7,0-3.3,0.7-4.4,1.9L560,598.3c-0.8,0.9-2,1.5-3.3,1.5
	C556.1,599.7,555.6,599.6,555.1,599.4z M536.6,419.6c-7.2,0-13,5.8-13,13v94.6c0,7.2,5.8,13,13,13h9.6c4.4,0,8,3.6,8,8v47
	c0,1.4,1.1,2.5,2.5,2.5c0.7,0,1.4-0.3,1.8-0.8l49.6-54.1c1.5-1.7,3.7-2.6,5.9-2.6h262.2c7.2,0,13-5.8,13-13v-94.6
	c0-7.2-5.8-13-13-13H536.6z"/>
<path class="st3" d="M449.2,628.7c-28.4,18.2-64.7,18.8-93.7,1.5c2.5-4.7,5.7-8.9,9.4-12.7c20.8-20.9,54.6-21,75.6-0.2
	c3.2,3.2,6,6.8,8.3,10.7C448.9,628.3,449.1,628.5,449.2,628.7z"/>
<circle class="st1" cx="398.4" cy="536.7" r="44.2"/>
<circle class="st5" cx="402.5" cy="552.1" r="32.9"/>
<path class="st1" d="M367.9,531.4c7.5,5.2,16.4,7.9,25.6,7.9c-3.3,2.3-7,3.8-10.9,4.5c12.1,2.6,24.7,2.7,36.9,0.2
	c2.7-0.4,5.3-1.3,7.7-2.6c2.4-1.4,4.2-3.7,4.8-6.4c0.8-4.6-2.8-8.8-6.5-11.6c-11.6-8.6-26.5-11.6-40.5-8.1c-4.5,1.2-9.1,3.1-12,6.8
	s-3.8,9.2-1,13L367.9,531.4z"/>
<path class="st0" d="M401.1,643.8c-49.7,0-90-40.3-89.9-90s40.3-90,90-89.9s90,40.3,89.9,90c0,30.7-15.6,59.2-41.4,75.7
	C435.2,638.8,418.4,643.8,401.1,643.8z M401.1,465.8c-48.6,0-88,39.4-88,88c0,48.6,39.4,88,88,88c48.6,0,88-39.4,88-88c0,0,0,0,0,0
	C489.1,505.2,449.7,465.8,401.1,465.8z"/>
<circle class="st3" cx="563.8" cy="445.2" r="13.1"/>
<path class="st4" d="M866.4,517.9H557.3c-3.9,0-7-3.1-7-7c0-3.9,3.1-7,7-7c0,0,0,0,0,0h309.1c3.9,0,7,3.1,7,7
	C873.4,514.7,870.3,517.9,866.4,517.9z"/>
<path class="st4" d="M765.7,488.1H557.3c-3.9,0-7-3.1-7-7c0-3.9,3.1-7,7-7c0,0,0,0,0,0h208.4c3.9,0,7,3.1,7,7
	C772.7,485,769.6,488.1,765.7,488.1z"/>
<ellipse class="st0" cx="554.6" cy="605.7" rx="24.5" ry="2.7"/>
<ellipse class="st0" cx="335.6" cy="285.7" rx="24.5" ry="2.7"/>
<g>
	<path class="st2" d="M106.1,840.3H82l-4.6,11.1H65.1l23.1-51.8h11.9l23.2,51.8h-12.6L106.1,840.3z M102.3,831.2l-8.2-19.8
		l-8.2,19.8H102.3z"/>
	<path class="st2" d="M127.1,828.6v-29h12v28.6c0,9.9,4.3,13.9,11.6,13.9c7.3,0,11.6-4.1,11.6-13.9v-28.6h11.9v29
		c0,15.3-8.7,23.7-23.5,23.7S127.1,843.8,127.1,828.6z"/>
	<path class="st2" d="M182.7,825.5c0-15.6,12-26.8,28.1-26.8c9,0,16.4,3.3,21.3,9.2l-7.7,7.1c-3.5-4-7.9-6.1-13-6.1
		c-9.7,0-16.6,6.8-16.6,16.6c0,9.8,6.9,16.6,16.6,16.6c5.2,0,9.6-2.1,13-6.1l7.7,7.1c-4.9,6-12.4,9.3-21.4,9.3
		C194.7,852.3,182.7,841.1,182.7,825.5z"/>
	<path class="st2" d="M239.3,828.6v-29h12v28.6c0,9.9,4.3,13.9,11.6,13.9c7.3,0,11.6-4.1,11.6-13.9v-28.6h11.9v29
		c0,15.3-8.7,23.7-23.5,23.7S239.3,843.8,239.3,828.6z"/>
	<path class="st2" d="M345.7,799.5v51.8h-9.9L310,819.9v31.5h-11.9v-51.8h9.9l25.8,31.5v-31.5H345.7z"/>
	<path class="st2" d="M426.1,851.4l-0.1-31.1l-15.3,25.6h-5.4l-15.2-25v30.4h-11.3v-51.8h9.9l19.4,32.2l19.1-32.2h9.9l0.1,51.8
		H426.1z"/>
	<path class="st2" d="M489.8,841.8v9.6h-40.1v-51.8h39.2v9.6h-27.3v11.3h24.1v9.3h-24.1v12H489.8z"/>
	<path class="st2" d="M495.3,846.3l4.1-9c4.4,3.2,10.9,5.4,17.1,5.4c7.1,0,10-2.4,10-5.6c0-9.7-30.1-3-30.1-22.3
		c0-8.8,7.1-16.1,21.8-16.1c6.5,0,13.2,1.6,18,4.6l-3.7,9.1c-4.8-2.7-9.8-4.1-14.4-4.1c-7.1,0-9.9,2.7-9.9,5.9c0,9.6,30.1,3,30.1,22
		c0,8.7-7.2,16.1-22,16.1C508.2,852.3,499.9,849.8,495.3,846.3z"/>
	<path class="st2" d="M542.6,846.3l4.1-9c4.4,3.2,10.9,5.4,17.1,5.4c7.1,0,10-2.4,10-5.6c0-9.7-30.1-3-30.1-22.3
		c0-8.8,7.1-16.1,21.8-16.1c6.5,0,13.2,1.6,18,4.6l-3.7,9.1c-4.8-2.7-9.8-4.1-14.4-4.1c-7.1,0-9.8,2.7-9.8,5.9c0,9.6,30.1,3,30.1,22
		c0,8.7-7.2,16.1-22,16.1C555.4,852.3,547.1,849.8,542.6,846.3z"/>
	<path class="st2" d="M628,840.3H604l-4.6,11.1h-12.3l23.1-51.8H622l23.2,51.8h-12.6L628,840.3z M624.2,831.2l-8.2-19.8l-8.2,19.8
		H624.2z"/>
	<path class="st2" d="M684.9,824.7h11v21c-5.7,4.3-13.6,6.6-21,6.6c-16.3,0-28.3-11.2-28.3-26.8s12-26.8,28.5-26.8
		c9.1,0,16.7,3.1,21.7,9l-7.7,7.1c-3.8-4-8.1-5.9-13.4-5.9c-10.1,0-17,6.7-17,16.6c0,9.7,6.9,16.6,16.8,16.6c3.3,0,6.3-0.6,9.3-2.2
		V824.7z"/>
	<path class="st2" d="M747.1,841.8v9.6H707v-51.8h39.2v9.6h-27.3v11.3H743v9.3h-24.1v12H747.1z"/>
</g>
<path class="st0" d="M726.1,50.9L88.4,688.5c-3.1,3.1-8.1,3.1-11.1,0l0,0c-3.1-3.1-3.1-8.1,0-11.1L714.9,39.8
	c3.1-3.1,8.1-3.1,11.1,0v0C729.2,42.8,729.2,47.8,726.1,50.9z"/>
</svg>
